<?xml version="1.0" encoding="UTF-8"?>
<svg version="1.1" xmlns="http://www.w3.org/2000/svg" width="2048" height="2048">
<path d="M0 0 C675.84 0 1351.68 0 2048 0 C2048 675.84 2048 1351.68 2048 2048 C1372.16 2048 696.32 2048 0 2048 C0 1372.16 0 696.32 0 0 Z " fill="#FEFEFE" transform="translate(0,0)"/>
<path d="M0 0 C11.87031544 9.99605511 19.47577058 24.57789715 21.34765625 40 C21.34765625 41.32 21.34765625 42.64 21.34765625 44 C22.25386719 43.51789062 23.16007812 43.03578125 24.09375 42.5390625 C37.62991158 35.45783449 51.89719591 32.0850843 67.14453125 36.24609375 C86.03311093 42.70973892 100.37607573 53.91443292 109.34765625 72 C112.45033676 79.36251597 114.96000508 86.98854244 115.34765625 95 C115.39792969 95.93714844 115.44820312 96.87429688 115.5 97.83984375 C116.06334077 116.43008907 110.21189754 132.76291045 98.34765625 147 C98.85554688 147.58265625 99.3634375 148.1653125 99.88671875 148.765625 C111.28554375 162.34175365 116.72431798 177.17631176 115.55908203 194.91796875 C113.61608198 214.05180758 104.46476312 228.91271565 89.78515625 240.9375 C74.37040792 252.23065787 55.90496914 255.1895833 37.19873047 252.71582031 C24.23104726 250.25238979 13.65615839 243.04993263 4.34765625 234 C3.85265625 234.680625 3.35765625 235.36125 2.84765625 236.0625 C-2.45697283 242.29543917 -8.13562815 246.7715625 -15.65234375 250 C-16.47734375 250.391875 -17.30234375 250.78375 -18.15234375 251.1875 C-33.65269867 256.22511535 -50.95340283 252.23092566 -65.32421875 245.73828125 C-70.53612504 243.01610015 -75.08289494 239.67949069 -79.65234375 236 C-80.28527344 235.53078125 -80.91820312 235.0615625 -81.5703125 234.578125 C-91.94784412 226.50407294 -99.52741892 213.97051973 -101.65234375 201 C-101.73319248 198.74562859 -101.75886686 196.48901029 -101.74809265 194.23321533 C-101.74627466 193.56559071 -101.74445666 192.89796609 -101.74258357 192.21011043 C-101.73522221 189.98019359 -101.72052836 187.75038732 -101.70581055 185.52050781 C-101.69893771 183.91863168 -101.69248888 182.31675369 -101.68643188 180.71487427 C-101.66852749 176.36756209 -101.64396311 172.02031193 -101.61767173 167.67304325 C-101.59615494 164.04010005 -101.5775084 160.40714416 -101.55873996 156.7741859 C-101.51424066 148.19903372 -101.46395615 139.6239281 -101.41040039 131.04882812 C-101.35535233 122.21425076 -101.31132946 113.3796656 -101.27254933 104.54500318 C-101.23875128 96.95157302 -101.19741165 89.35820813 -101.15022403 81.76484942 C-101.12218112 77.23353189 -101.09710792 72.70224696 -101.07956505 68.17087555 C-101.06277903 63.90594456 -101.03656168 59.64117192 -101.00325394 55.37633896 C-100.9926339 53.81595393 -100.98529779 52.25554234 -100.98158836 50.69512558 C-100.9356381 33.18604642 -97.30370857 20.08670293 -84.8125 7.13671875 C-84.09964844 6.43160156 -83.38679688 5.72648438 -82.65234375 5 C-81.87697266 4.17435547 -81.87697266 4.17435547 -81.0859375 3.33203125 C-60.02302284 -17.18093786 -22.57417536 -17.02205859 0 0 Z " fill="#01897B" transform="translate(1418.65234375,803)"/>
<path d="M0 0 C1.36209786 1.13639378 2.71620632 2.28242653 4.0625 3.4375 C4.89007812 4.0665625 5.71765625 4.695625 6.5703125 5.34375 C15.34637243 12.71674078 22.62773144 25.32092362 23.9375 36.75 C23.97875 37.966875 24.02 39.18375 24.0625 40.4375 C24.8153125 40.39109375 25.568125 40.3446875 26.34375 40.296875 C47.78435451 39.56831077 67.41774601 48.88008181 83.0859375 63.15234375 C92.46699797 71.98991709 99.53345288 82.08040192 105.4375 93.5 C105.75944336 94.11198242 106.08138672 94.72396484 106.41308594 95.35449219 C112.75345558 108.18954734 112.44328639 121.15197914 112.2421875 135.109375 C112.22172381 137.20297358 112.20221937 139.29658174 112.18362427 141.39019775 C112.14129359 145.75754734 112.08787448 150.12457882 112.02636719 154.49169922 C111.94855759 160.07532796 111.89793434 165.65881297 111.8554821 171.2428093 C111.81979383 175.55817124 111.77007764 179.87328478 111.7161293 184.18845367 C111.69199344 186.2472 111.67208749 188.30600061 111.65658188 190.36483002 C111.6327285 193.24328406 111.59003509 196.12087597 111.54248047 198.99902344 C111.5375634 200.26008156 111.5375634 200.26008156 111.532547 201.5466156 C111.2702931 213.87160974 104.65135961 223.96417786 96.3125 232.6875 C82.53408013 245.82070686 64.54218759 252.90040668 45.578125 252.640625 C28.44883001 251.6509324 14.35119221 244.68329635 2.41796875 232.66015625 C0.19123707 230.24647408 0.19123707 230.24647408 -2.9375 229.4375 C-3.25460937 229.994375 -3.57171875 230.55125 -3.8984375 231.125 C-10.69974471 242.24757974 -19.80203302 247.96178757 -32.3203125 251.01953125 C-49.2831292 253.72851839 -64.05818336 249.11282941 -77.921875 239.33203125 C-88.50825303 231.07056221 -94.97905598 221.88098371 -99.9375 209.4375 C-100.46293144 208.21517418 -100.46293144 208.21517418 -100.99897766 206.96815491 C-102.34104684 201.91938524 -102.20726169 197.07122077 -102.18041992 191.86889648 C-102.18231827 190.70825684 -102.18421661 189.54761719 -102.18617249 188.35180664 C-102.18988241 184.50400066 -102.17915286 180.6563831 -102.16796875 176.80859375 C-102.16576226 174.10327619 -102.16627378 171.3979605 -102.1665802 168.69264221 C-102.16564295 162.99892883 -102.15697398 157.3052686 -102.14331055 151.61157227 C-102.12951296 145.8426813 -102.12228673 140.07383933 -102.12280273 134.30493164 C-102.12681426 80.68296665 -102.12681426 80.68296665 -101.55078125 56.47265625 C-101.53575247 55.73483854 -101.52072369 54.99702084 -101.50523949 54.23684502 C-101.27398297 43.44332739 -100.30303352 34.18389689 -95.3125 24.5 C-94.95768555 23.8083374 -94.60287109 23.1166748 -94.23730469 22.40405273 C-86.06369854 6.92587328 -73.61004868 -3.09838741 -56.9375 -8.5625 C-37.60120974 -13.72383086 -16.42153885 -12.65488225 0 0 Z " fill="#01897B" transform="translate(820.9375,806.5625)"/>
<path d="M0 0 C1.25975647 -0.00992981 2.51951294 -0.01985962 3.81744385 -0.03009033 C7.24942356 -0.05612831 10.68132544 -0.06918576 14.1133883 -0.07811165 C16.26419799 -0.08400522 18.41498714 -0.09222042 20.56578636 -0.10112 C27.31472991 -0.12840995 34.06362561 -0.14777439 40.81262046 -0.15552378 C48.56785638 -0.16448138 56.32238664 -0.19958378 64.07740813 -0.25752497 C70.09727455 -0.30092105 76.11694352 -0.32094078 82.1369645 -0.32360601 C85.72124428 -0.32568992 89.30485809 -0.3372401 92.88897133 -0.37324524 C96.89255484 -0.41268959 100.89468022 -0.40356585 104.8984375 -0.390625 C106.06610153 -0.40905457 107.23376556 -0.42748413 108.43681335 -0.44647217 C118.17819147 -0.34834595 125.51523669 2.82653104 133.2565918 8.67382812 C146.62999025 22.49854908 152.81875014 39.52131193 153.39331055 58.69726562 C153.34262527 60.2403507 153.25468658 61.78237084 153.14331055 63.32226562 C153.06338867 64.43085937 152.9834668 65.53945313 152.90112305 66.68164062 C151.62204822 79.26356038 148.13644664 90.8098332 139.65893555 100.49023438 C138.12493217 102.34448072 137.13198027 104.13653012 136.14331055 106.32226562 C136.65120117 106.83273437 137.1590918 107.34320312 137.68237305 107.86914062 C148.86908419 119.68431869 154.19224841 134.73409591 154.58081055 150.88476562 C153.98595948 168.08136918 149.00542174 185.22677033 136.14331055 197.32226562 C135.52842773 197.93328125 134.91354492 198.54429687 134.2800293 199.17382812 C113.44659574 218.79650101 79.30980866 213.80667501 52.99380493 214.15370178 C46.26550925 214.242843 39.53858273 214.34984184 32.8112793 214.49414062 C26.50945563 214.62916704 20.20790859 214.73342743 13.90502739 214.80433559 C10.52532925 214.84329445 7.14719166 214.89573463 3.76837158 214.98318481 C-11.64119643 215.3506406 -23.9216591 215.31834197 -36.85668945 206.32226562 C-37.78416992 205.68393799 -38.71165039 205.04561035 -39.66723633 204.38793945 C-41.85588643 202.80553404 -43.85455713 201.13292583 -45.85668945 199.32226562 C-46.46641602 198.79246094 -47.07614258 198.26265625 -47.7043457 197.71679688 C-57.45589766 188.69393231 -65.22510141 174.55748715 -65.97924805 161.14208984 C-66.62189953 141.07967895 -63.13178764 124.72114141 -49.3605957 109.40820312 C-47.46680624 107.21008421 -47.46680624 107.21008421 -47.85668945 103.32226562 C-49.40253242 101.44197471 -49.40253242 101.44197471 -51.48168945 99.69726562 C-61.41251731 90.16998731 -65.87508625 78.20880526 -66.32958984 64.57739258 C-66.49951126 47.30204891 -61.35964136 31.20857033 -49.20825195 18.44726562 C-34.85587778 5.47767833 -19.12206836 0.03642346 0 0 Z " fill="#01897B" transform="translate(1837.856689453125,838.677734375)"/>
<path d="M0 0 C1.45214733 1.21182717 2.89041932 2.44052627 4.3125 3.6875 C4.9415625 4.21085938 5.570625 4.73421875 6.21875 5.2734375 C15.43396559 13.55904801 18.32514963 24.90286096 20.3125 36.6875 C21.52164063 36.82285156 22.73078125 36.95820312 23.9765625 37.09765625 C35.04379991 38.49098899 43.72027682 40.73284717 53.3125 46.6875 C54.14007813 47.20054687 54.96765625 47.71359375 55.8203125 48.2421875 C70.41871829 58.46615811 79.45460491 76.69062478 82.70703125 93.7578125 C83.00774589 95.7385196 83.18376825 97.68837165 83.3125 99.6875 C83.37695312 100.47125 83.44140625 101.255 83.5078125 102.0625 C84.08127716 114.90810835 80.27202286 129.85803678 71.59375 139.62109375 C70.19047784 141.00119868 68.75479367 142.34822731 67.3125 143.6875 C67.3125 144.3475 67.3125 145.0075 67.3125 145.6875 C68.48215793 146.73247358 69.70018092 147.723596 70.9375 148.6875 C79.41234583 155.93454131 83.63936526 166.29782155 86.0625 177 C87.42066286 197.03290213 84.8047704 216.07329983 71.3125 231.6875 C70.735 232.533125 70.1575 233.37875 69.5625 234.25 C57.27125609 247.56551424 37.91485612 250.82192804 20.59863281 251.92382812 C-14.28661626 253.30282971 -44.10951895 245.64590184 -70.3671875 221.91015625 C-82.87465838 210.09272782 -92.83571791 194.20666283 -97.6875 177.6875 C-97.86327733 177.09565477 -98.03905466 176.50380955 -98.22015858 175.89402962 C-98.77734738 173.26329 -98.81660699 170.83888739 -98.82121277 168.14865112 C-98.82547775 167.02169327 -98.82974274 165.89473541 -98.83413696 164.73362732 C-98.83368378 163.50136917 -98.83323059 162.26911102 -98.83276367 160.99951172 C-98.83612228 159.69825851 -98.8394809 158.39700531 -98.84294128 157.05632019 C-98.85177308 153.4878129 -98.85411915 149.9193296 -98.85475707 146.35081244 C-98.85546845 144.11814087 -98.85760451 141.88547538 -98.86025429 139.65280533 C-98.86950749 131.85414494 -98.87358952 124.05550163 -98.87280273 116.25683594 C-98.87220309 109.0042209 -98.88273271 101.75168052 -98.8985464 94.49908435 C-98.91165968 88.26110355 -98.91698499 82.02314702 -98.91634732 75.78515255 C-98.9160933 72.06473805 -98.9188912 68.3443898 -98.92952538 64.62398911 C-98.9410837 60.46656016 -98.93643643 56.30929615 -98.93041992 52.15185547 C-98.93603943 50.93174271 -98.94165894 49.71162994 -98.94744873 48.45454407 C-98.89129683 33.14138773 -95.35018576 21.24537827 -84.5625 9.875 C-62.74790325 -10.59853547 -25.55033729 -19.22727402 0 0 Z " fill="#01897C" transform="translate(177.6875,812.3125)"/>
<path d="M0 0 C6.21506518 -0.15145701 12.42967856 -0.25733162 18.64605713 -0.33734131 C21.1018404 -0.37544641 23.55745308 -0.42731496 26.01263428 -0.49371338 C44.84004562 -0.98377487 57.04572211 1.08060176 71.48828125 13.54248047 C79.70303242 21.43300233 85.96695901 29.45918677 89.98828125 40.16748047 C90.30796875 40.96025391 90.62765625 41.75302734 90.95703125 42.56982422 C95.68366378 56.42148345 94.4305903 74.26042617 88.51171875 87.46044922 C84.90307809 94.6200582 80.63503282 100.4961778 74.98828125 106.16748047 C74.4159375 106.74240234 73.84359375 107.31732422 73.25390625 107.90966797 C72.62742187 108.53228516 72.62742187 108.53228516 71.98828125 109.16748047 C72.85646484 109.53873047 72.85646484 109.53873047 73.7421875 109.91748047 C81.59572848 114.28814675 87.12314782 123.6901615 89.5546875 132.13452148 C90.96435019 137.82753424 91.3050804 143.25584439 91.23828125 149.10498047 C91.22486694 150.43190918 91.22486694 150.43190918 91.21118164 151.78564453 C90.91741141 168.2672197 85.29993301 182.99614318 73.98828125 195.16748047 C73.446875 195.79912109 72.90546875 196.43076172 72.34765625 197.08154297 C66.60135447 203.4136328 56.76333988 210.5303151 48.02742577 211.35189056 C45.59454707 211.42773792 43.16915921 211.4376337 40.73510742 211.42626953 C39.81088486 211.42977417 38.88666229 211.43327881 37.93443298 211.43688965 C34.88329525 211.44568182 31.83239005 211.43986517 28.78125 211.43310547 C26.65521704 211.43445318 24.52918438 211.43639461 22.40315247 211.43890381 C17.9470425 211.44185196 13.49101274 211.43756858 9.03491211 211.42822266 C3.335479 211.41684918 -2.36376529 211.42337626 -8.06319141 211.43536758 C-12.45478219 211.44261226 -16.84632861 211.44028592 -21.23792076 211.435112 C-23.33857941 211.43378163 -25.43924213 211.43540166 -27.53989601 211.44007111 C-30.48349208 211.44517686 -33.42678751 211.43736839 -36.37036133 211.42626953 C-37.66194153 211.43234222 -37.66194153 211.43234222 -38.97961426 211.4385376 C-59.12295643 211.29855346 -77.86291612 196.51007166 -91.578125 182.67871094 C-112.74465621 160.36589959 -123.04382951 132.09790234 -122.296875 101.50732422 C-120.94206538 69.62111459 -104.67122967 42.8667761 -81.75390625 21.70703125 C-70.38505334 11.66050849 -53.58166031 1.15786433 -38.08203125 0.75341797 C-37.39919067 0.73364395 -36.7163501 0.71386993 -36.01281738 0.6934967 C-33.72089733 0.63148884 -31.42907539 0.58524503 -29.13671875 0.54248047 C-28.33691589 0.52645782 -27.53711304 0.51043518 -26.71307373 0.493927 C-22.21771369 0.40609571 -17.72231303 0.3331321 -13.2265625 0.26855469 C-8.81694432 0.20262396 -4.4087698 0.10862557 0 0 Z " fill="#01897B" transform="translate(619.01171875,846.83251953125)"/>
<path d="M0 0 C0.66002014 0.00054382 1.32004028 0.00108765 2.00006104 0.00164795 C13.26441543 0.04419348 23.78105879 1.04554906 34.5625 4.375 C35.25972168 4.58930664 35.95694336 4.80361328 36.67529297 5.02441406 C62.80217126 13.36316685 85.95831716 31.3059724 98.90625 55.66015625 C100.88413701 59.52507326 102.7615859 63.4244654 104.5625 67.375 C104.91690155 68.11985153 105.2713031 68.86470306 105.63644409 69.63212585 C106.80367245 73.08932585 106.8864546 76.10825417 106.97314453 79.75708008 C106.99294373 80.48313446 107.01274292 81.20918884 107.03314209 81.95724487 C107.09618045 84.35287634 107.14587657 86.74858359 107.1953125 89.14453125 C107.23653466 90.82543283 107.27852953 92.50631562 107.32125854 94.18717957 C107.43156326 98.61794503 107.53030403 103.04889911 107.62695312 107.47998047 C107.70687484 111.05389927 107.79510444 114.62758901 107.88382149 118.20129871 C107.99067481 122.51563816 108.09341826 126.83007218 108.1953125 131.14453125 C108.21442814 131.94693552 108.23354378 132.74933979 108.25323868 133.57605934 C108.37660767 138.84211696 108.47868628 144.10817039 108.5625 149.375 C108.57581108 150.11451778 108.58912216 150.85403557 108.60283661 151.61596298 C108.63881497 153.7852342 108.66280399 155.9543107 108.68310547 158.1237793 C108.69791962 159.37176804 108.71273376 160.61975677 108.72799683 161.90556335 C108.06299222 175.846564 99.47747661 188.50117631 89.6484375 197.83203125 C73.99597205 210.73045531 55.47227678 214.86802474 35.5625 213.375 C22.75558703 211.13716047 10.83735979 204.43647725 2.5625 194.375 C1.20611063 192.39056415 -0.13204257 190.39330589 -1.4375 188.375 C-2.12714844 189.17164063 -2.81679687 189.96828125 -3.52734375 190.7890625 C-11.02976402 199.30935185 -18.28969492 206.11275472 -29.4375 209.375 C-30.46617187 209.68244141 -30.46617187 209.68244141 -31.515625 209.99609375 C-46.30143854 213.85210627 -62.22078745 210.43984657 -75.4921875 203.26171875 C-89.52777592 194.27075163 -99.34114321 182.74733973 -103.98612213 166.45012283 C-104.75361928 162.92170247 -104.62967323 159.3260653 -104.66210938 155.72949219 C-104.67349945 154.85728027 -104.68488953 153.98506836 -104.69662476 153.08642578 C-104.80753131 143.93989736 -104.85475904 134.79256703 -104.89746094 125.64550781 C-104.919651 121.31957848 -104.96129601 116.99452338 -105.02050781 112.66894531 C-105.09213132 107.42518831 -105.12837244 102.18224744 -105.14057922 96.93802643 C-105.15089406 94.95273147 -105.17311 92.96745682 -105.20817566 90.98244476 C-105.60213535 67.44776344 -96.1717118 50.80051144 -80.4375 33.375 C-65.12915268 17.6401043 -45.64325613 7.5304723 -24.4375 2.375 C-23.70072021 2.18808594 -22.96394043 2.00117187 -22.20483398 1.80859375 C-14.82697716 0.11375227 -7.54692332 -0.01051237 0 0 Z " fill="#01897B" transform="translate(1053.4375,846.625)"/>
<path d="M0 0 C0.6791748 0.20898926 1.35834961 0.41797852 2.05810547 0.63330078 C28.83398659 9.09384547 50.78109908 28.21739519 64.00927734 52.88183594 C70.52557884 65.57371728 75.13046333 78.53674398 75.17700195 92.87011719 C75.18357315 93.75371918 75.19014435 94.63732117 75.19691467 95.54769897 C75.21658179 98.46409194 75.22829531 101.38043358 75.23828125 104.296875 C75.24235678 105.29605202 75.2464323 106.29522903 75.25063133 107.32468414 C75.27146355 112.61293834 75.28577783 117.90116681 75.29516602 123.18945312 C75.30622711 128.63780213 75.34063197 134.08574238 75.38033772 139.53394699 C75.40653852 143.73598975 75.41486092 147.93793555 75.41844749 152.1400528 C75.4233041 154.14780693 75.43489155 156.15555699 75.45348549 158.1632309 C75.47795171 160.97991466 75.47689833 163.7955462 75.4699707 166.61230469 C75.48918579 167.84238754 75.48918579 167.84238754 75.50878906 169.09732056 C75.40574882 180.66069187 68.81775558 188.98364634 61.0546875 197.01171875 C49.88095023 207.43903228 37.08395715 209.24618472 22.30078125 209.4140625 C21.2029834 209.43365524 20.10518555 209.45324799 18.97412109 209.47343445 C15.42032195 209.5338799 11.8665319 209.58048092 8.3125 209.625 C5.84854871 209.66021011 3.38460015 209.69561217 0.9206543 209.73120117 C-4.03200187 209.80003625 -8.98467616 209.86109887 -13.9375 209.91650391 C-19.37292782 209.97776763 -24.80763926 210.06046588 -30.24259949 210.15368652 C-33.88360558 210.21183256 -37.52461406 210.25170085 -41.16592407 210.28509521 C-42.82370587 210.30311218 -44.48143164 210.32770044 -46.13900757 210.35943604 C-55.75164624 210.53519333 -64.04247701 209.9186464 -73 206 C-73.70471436 205.6918335 -74.40942871 205.38366699 -75.13549805 205.06616211 C-84.21736223 200.8006684 -92.21766549 195.29886378 -100 189 C-100.67675781 188.46503906 -101.35351562 187.93007812 -102.05078125 187.37890625 C-122.74296464 170.44893802 -135.29245479 143.53863058 -138.72265625 117.37109375 C-141.09127547 88.58069394 -133.89238418 59.21731342 -115.75 36.375 C-107.75425071 27.04433215 -99.44865702 18.56869969 -89 12 C-88.27039062 11.50242187 -87.54078125 11.00484375 -86.7890625 10.4921875 C-61.80315156 -5.79555649 -28.16543453 -8.94086404 0 0 Z " fill="#01897B" transform="translate(1685,842)"/>
<path d="M0 0 C1.55099442 1.44840896 3.0940604 2.90540953 4.625 4.375 C5.511875 5.220625 6.39875 6.06625 7.3125 6.9375 C8.075625 7.741875 8.83875 8.54625 9.625 9.375 C10.14320313 9.90996094 10.66140625 10.44492187 11.1953125 10.99609375 C27.49106934 28.57066559 33.78797415 50.27502347 34.0625 73.75 C34.09609619 75.56987427 34.09609619 75.56987427 34.13037109 77.42651367 C34.1115089 84.61251382 33.37414461 89.2295691 29.625 95.375 C28.29864799 98.28371551 28.29864799 98.28371551 29.55078125 100.72265625 C30.00839844 101.61855469 30.46601563 102.51445313 30.9375 103.4375 C37.75512108 117.84919344 36.54482968 132.5488371 31.625 147.375 C27.86958108 156.41330098 22.56458136 163.53508947 15.625 170.375 C14.78001953 171.23544922 14.78001953 171.23544922 13.91796875 172.11328125 C0.60884075 184.6452339 -16.29461424 185.84603094 -33.515625 185.80859375 C-35.36969186 185.81316566 -37.22375704 185.8184742 -39.07781982 185.82447815 C-42.95087598 185.83337377 -46.82372556 185.8310282 -50.69677734 185.82104492 C-55.61982034 185.80958159 -60.54214319 185.82974457 -65.46509171 185.85896206 C-69.29167083 185.877459 -73.11808183 185.8770046 -76.94469452 185.87132454 C-78.75767779 185.87117285 -80.57067359 185.87708854 -82.38361359 185.88961601 C-96.69014521 185.97454209 -109.76624107 184.48660666 -122.625 177.625 C-123.28773926 177.28138428 -123.95047852 176.93776855 -124.63330078 176.58374023 C-147.80985352 164.25417359 -164.69586584 144.02250556 -173.375 119.375 C-173.76816406 118.32570313 -174.16132813 117.27640625 -174.56640625 116.1953125 C-180.22704875 98.16803987 -179.68743006 73.39716838 -174.375 55.375 C-174.17632324 54.69518066 -173.97764648 54.01536133 -173.77294922 53.31494141 C-169.34613421 38.57547119 -162.46980084 26.06581678 -152.375 14.375 C-151.48941406 13.27285156 -151.48941406 13.27285156 -150.5859375 12.1484375 C-132.72688308 -9.35842378 -105.37974777 -21.13134647 -78.125 -24.3125 C-50.36007398 -26.50086855 -21.05285226 -18.69988642 0 0 Z " fill="#01897B" transform="translate(451.375,875.625)"/>
<path d="M0 0 C12.74418314 9.84603306 22.83496283 23.87138602 25.59375 40.00390625 C25.8320296 43.73081574 25.82468775 47.45758711 25.84375 51.19140625 C25.8746875 52.67737305 25.8746875 52.67737305 25.90625 54.19335938 C25.95522616 63.52943988 23.83270299 71.15753387 19.53125 79.44140625 C19.02464844 80.43011719 18.51804687 81.41882813 17.99609375 82.4375 C16.59375 85.00390625 16.59375 85.00390625 14.59375 88.00390625 C15.46 88.28234375 15.46 88.28234375 16.34375 88.56640625 C19.66193591 90.68635836 21.22559946 93.40130599 22.59375 97.00390625 C23.19065263 100.98548181 23.19855715 104.92823 23.203125 108.94921875 C23.21993317 110.12833832 23.23674133 111.30745789 23.25405884 112.52230835 C23.30383726 116.39124872 23.32492536 120.25970049 23.34375 124.12890625 C23.36648634 126.81448152 23.39371145 129.50000848 23.42041016 132.18554688 C23.47260935 137.71383188 23.50904235 143.24205775 23.53808594 148.77050781 C23.57396012 155.3870654 23.65944956 162.00202077 23.76416016 168.6178894 C23.83687741 173.43781842 23.88721701 178.25780022 23.9317627 183.07806396 C23.95620585 185.34204019 23.98853457 187.60594654 24.0291748 189.86968994 C24.367516 209.73446423 20.92965773 222.28554244 6.96875 237.12890625 C-1.42773682 245.23234421 -11.24731566 250.7167783 -22.40625 254.00390625 C-23.42138672 254.34035156 -23.42138672 254.34035156 -24.45703125 254.68359375 C-40.5525613 259.24659839 -57.63096327 255.58170527 -72.0703125 248.02734375 C-77.14827448 244.94726845 -81.28840033 241.25876386 -85.40625 237.00390625 C-86.28216797 236.12412109 -86.28216797 236.12412109 -87.17578125 235.2265625 C-99.80456004 221.63863595 -101.00690583 202.76737761 -101.015625 185.19921875 C-101.0306807 183.4234777 -101.04742258 181.64775025 -101.06573486 179.87203979 C-101.10903451 175.2297295 -101.12928985 170.58760525 -101.14447021 165.94512939 C-101.16389774 161.30054199 -101.20599507 156.65616563 -101.24609375 152.01171875 C-101.29900066 145.74040353 -101.33497462 139.46947255 -101.34812164 133.19794846 C-101.34990166 132.35177586 -101.35168167 131.50560326 -101.35351562 130.63378906 C-101.35523521 129.80375996 -101.3569548 128.97373085 -101.3587265 128.11854935 C-101.37672126 123.05108359 -101.4745678 117.9938046 -101.63085938 112.92871094 C-101.65867493 111.73809052 -101.68649048 110.54747009 -101.71514893 109.32077026 C-101.76710527 107.20714821 -101.84165781 105.09386911 -101.94647217 102.98220825 C-102.09191883 95.52313976 -99.62632026 91.03704442 -95.40625 85.00390625 C-94.91125 84.01390625 -94.91125 84.01390625 -94.40625 83.00390625 C-95.25237602 81.03457774 -96.18569265 79.10247989 -97.15625 77.19140625 C-104.34895684 61.95290408 -106.05461243 45.09890554 -100.40625 29.00390625 C-93.10456974 11.83714238 -80.92473777 -0.92958718 -63.40625 -7.99609375 C-41.89137863 -15.02075804 -18.98511617 -12.92663057 0 0 Z " fill="#01897B" transform="translate(1278.40625,803.99609375)"/>
<path d="M0 0 C9.23969187 7.70964643 16.76072238 17.04147259 19.4296875 29.02734375 C19.86265764 34.28236685 19.85297434 39.52112558 19.828125 44.7890625 C19.83014977 46.30882405 19.83306456 47.82858464 19.83682251 49.3483429 C19.84122289 52.51788678 19.83488649 55.68717544 19.82080078 58.85668945 C19.80366593 62.90847042 19.81359133 66.95965696 19.83151817 71.01141644 C19.84238071 74.1436457 19.83889916 77.27573494 19.8311348 80.40796852 C19.82914188 81.90182377 19.83155996 83.39569197 19.83857346 84.88953209 C19.84623407 86.97837221 19.83452306 89.06625975 19.81787109 91.1550293 C19.81548431 92.34033737 19.81309753 93.52564545 19.81063843 94.74687195 C19.3030235 99.11808183 17.92107999 102.57055433 14.74609375 105.671875 C14.16730469 106.05730469 13.58851562 106.44273437 12.9921875 106.83984375 C12.41597656 107.23816406 11.83976562 107.63648438 11.24609375 108.046875 C7.82278134 109.89472751 4.49891986 110.16052028 0.65551758 110.23266602 C-0.29034714 110.25261124 -1.23621185 110.27255646 -2.21073914 110.29310608 C-3.23045303 110.30981857 -4.25016693 110.32653107 -5.30078125 110.34375 C-6.36460526 110.3645311 -7.42842926 110.38531219 -8.52449036 110.40672302 C-10.78313238 110.4499793 -13.04181771 110.4910222 -15.30053711 110.5300293 C-18.69981392 110.58884031 -22.09891434 110.65412141 -25.49804688 110.72070312 C-75.84539629 111.67778396 -75.84539629 111.67778396 -92.0078125 97.65234375 C-104.23957367 85.78151979 -111.33923312 71.67575983 -111.97485352 54.47900391 C-112.2310015 36.39685363 -105.66520591 21.35332452 -93.5703125 8.02734375 C-69.07598822 -17.17036485 -28.33215734 -22.04980941 0 0 Z " fill="#FDFEFE" transform="translate(1698.5703125,895.97265625)"/>
<path d="M0 0 C3.56351721 3.15194536 5.73807429 5.80737381 6.76953125 10.50390625 C6.81337721 11.85613599 6.82509869 13.20961826 6.8125 14.5625 C6.82982178 15.34061035 6.84714355 16.1187207 6.86499023 16.92041016 C6.90514174 18.79357252 6.93266816 20.66702608 6.95117188 22.54052734 C7.00961558 26.68126383 7.13541113 30.81803359 7.265625 34.95703125 C7.7783262 51.63795148 8.18010951 68.30985238 8 85 C12.26875101 84.90570108 16.53699594 84.79944868 20.80517578 84.68261719 C22.25398848 84.64458384 23.70288739 84.60968863 25.15185547 84.578125 C36.25394052 84.47354108 36.25394052 84.47354108 47 82 C48.43088211 79.71475105 48.43088211 79.71475105 49 77 C49.495 76.2575 49.99 75.515 50.5 74.75 C53.19724653 69.80504803 53.86821529 64.61677336 54.3203125 59.0703125 C55.34091554 46.60859106 55.34091554 46.60859106 59.375 43.125 C61.1484375 41.9453125 61.1484375 41.9453125 63 41 C63.63550781 40.63390625 64.27101563 40.2678125 64.92578125 39.890625 C69.28910765 38.01710632 74.51263963 38.18710532 78.99609375 39.65234375 C86.13386908 43.35635634 90.61027003 49.76645473 93.30859375 57.1953125 C95.76768288 67.17060062 94.36063139 77.3204616 89.16015625 86.109375 C86.01431419 90.91308168 82.77914736 95.66857641 79 100 C78.34 100 77.68 100 77 100 C76.61714844 100.88945313 76.61714844 100.88945313 76.2265625 101.796875 C74.88183502 104.21224538 73.50785633 105.51211706 71.375 107.25 C70.42753906 108.03117188 70.42753906 108.03117188 69.4609375 108.828125 C68.97882813 109.21484375 68.49671875 109.6015625 68 110 C69.56332539 114.81872063 72.31101305 118.30552354 75.375 122.25 C79.9292775 128.21275202 84.36633251 134.24096668 88.6875 140.375 C89.20425293 141.1062207 89.72100586 141.83744141 90.25341797 142.59082031 C94.74030515 148.97641389 95.67066435 153.05262751 95 161 C93.5 164.6875 93.5 164.6875 92 167 C91.34 167 90.68 167 90 167 C90 167.66 90 168.32 90 169 C84.70070931 173.06278953 77.8776768 174.60307906 71.375 175.5 C65.10711522 174.57142448 60.54142808 171.061459 56.71875 166.09375 C55.63204102 164.57225721 54.55973201 163.0404041 53.5 161.5 C52.29627438 159.8071673 51.09045997 158.11581838 49.8828125 156.42578125 C49.25665039 155.5435791 48.63048828 154.66137695 47.98535156 153.75244141 C43.89552658 148.08241105 39.5944119 142.57040371 35.33007812 137.03125 C34.69263672 136.19980469 34.05519531 135.36835937 33.3984375 134.51171875 C32.79580078 133.73376953 32.19316406 132.95582031 31.57226562 132.15429688 C30.21595608 130.29590007 29.14363183 128.46675737 28.0546875 126.44921875 C26.09620525 123.60062711 26.09620525 123.60062711 22.109375 123.1953125 C20.65702092 123.14249962 19.20330493 123.11986465 17.75 123.125 C17.00492188 123.104375 16.25984375 123.08375 15.4921875 123.0625 C13.66194136 123.01557061 11.83084275 123.00425777 10 123 C9.98018066 123.75506836 9.96036133 124.51013672 9.93994141 125.28808594 C9.84350761 128.77568593 9.73431721 132.26278097 9.625 135.75 C9.5940625 136.93722656 9.563125 138.12445312 9.53125 139.34765625 C8.7973164 161.73263091 8.7973164 161.73263091 3 168 C-4.25282873 173.11672164 -11.30550695 174.03769732 -20 173 C-26.01226609 170.65564876 -29.7161053 166.96421045 -32.34375 161.125 C-33.79748169 156.41767835 -34.12719315 151.75400908 -34.14717102 146.85205078 C-34.15432632 145.64083557 -34.16148163 144.42962036 -34.16885376 143.18170166 C-34.17288712 141.20843903 -34.17288712 141.20843903 -34.17700195 139.1953125 C-34.18327345 137.78545975 -34.18992085 136.37560863 -34.19691467 134.96575928 C-34.21786351 130.35218436 -34.22830359 125.73860944 -34.23828125 121.125 C-34.24233125 119.53338606 -34.24644825 117.94177229 -34.25063133 116.35015869 C-34.26965724 108.87613432 -34.28389767 101.4021197 -34.2922433 93.92807579 C-34.30202765 85.30924319 -34.32838906 76.69066658 -34.36874419 68.07192421 C-34.39890225 61.40169877 -34.41371159 54.7315468 -34.41702431 48.0612545 C-34.41937372 44.08045434 -34.42832091 40.09992852 -34.45348549 36.11920166 C-34.47676827 32.37623187 -34.48099894 28.63371711 -34.47072411 24.89069366 C-34.46999304 22.86652225 -34.48907917 20.84237392 -34.50878906 18.81829834 C-34.44544831 7.76972439 -34.44544831 7.76972439 -30 3 C-21.85015977 -4.52292945 -9.79292002 -5.41769607 0 0 Z " fill="#FDFEFD" transform="translate(1394,842)"/>
<path d="M0 0 C0.94625244 -0.0071553 1.89250488 -0.01431061 2.86743164 -0.02168274 C3.903853 -0.02437164 4.94027435 -0.02706055 6.00810242 -0.02983093 C7.10105621 -0.03640213 8.19401001 -0.04297333 9.32008362 -0.04974365 C12.94354823 -0.06948409 16.56697141 -0.08114019 20.19047546 -0.09111023 C21.42691488 -0.09518576 22.6633543 -0.09926128 23.93726158 -0.10346031 C29.80521745 -0.12217154 35.67315701 -0.13673749 41.54113704 -0.14507228 C48.30812515 -0.15484355 55.07478606 -0.18116284 61.84165889 -0.22157317 C67.70800604 -0.25540017 73.57424363 -0.26721953 79.44067955 -0.27127647 C81.93376575 -0.27615239 84.4268482 -0.28779477 86.91987038 -0.30631447 C90.40788058 -0.33061748 93.89503377 -0.32975669 97.38310242 -0.32279968 C98.92862541 -0.34201477 98.92862541 -0.34201477 100.50537109 -0.36161804 C106.47549218 -0.31819612 109.82327832 0.20920868 114.38969421 4.14717102 C118.33528967 8.20236636 120.32290461 12.38469021 120.42485046 18.12763977 C119.71869946 27.03203165 115.03950123 31.7151308 108.57328796 37.28779602 C103.68359828 41.58242722 99.18974502 46.3041081 94.63114929 50.94355774 C90.67947054 54.94179191 86.63213077 58.722123 82.37162781 62.38789368 C78.93053921 65.44240026 75.73432268 68.73763069 72.51469421 72.02217102 C71.20712147 73.35518292 69.89733406 74.68602718 68.58500671 76.01435852 C68.01798035 76.59298645 67.45095398 77.17161438 66.866745 77.76777649 C65.38969421 79.14717102 65.38969421 79.14717102 63.38969421 80.14717102 C63.38969421 82.45717102 63.38969421 84.76717102 63.38969421 87.14717102 C63.96519012 87.16334473 64.54068604 87.17951843 65.13362122 87.19618225 C71.13685271 87.36863148 77.13879024 87.5676465 83.14067078 87.78193665 C85.37905605 87.85838511 87.61768152 87.92811397 89.85649109 87.99092102 C93.07936803 88.08251255 96.30060086 88.1984421 99.52250671 88.31904602 C101.01815659 88.35369965 101.01815659 88.35369965 102.54402161 88.38905334 C109.5940201 88.68693316 113.19235183 89.96993771 118.25297546 94.99873352 C118.73121765 95.5839679 119.20945984 96.16920227 119.70219421 96.77217102 C120.19332703 97.36256165 120.68445984 97.95295227 121.19047546 98.56123352 C124.78204833 103.3110009 123.86824579 109.47101761 123.38969421 115.14717102 C121.77992902 120.65886708 118.64826037 124.33687499 114.38969421 128.14717102 C113.72969421 128.80717102 113.06969421 129.46717102 112.38969421 130.14717102 C110.21022034 130.42564392 110.21022034 130.42564392 107.45170593 130.46601868 C106.40936295 130.48586319 105.36701996 130.5057077 104.29309082 130.52615356 C102.57360481 130.54351814 102.57360481 130.54351814 100.81938171 130.56123352 C99.6188768 130.58082626 98.41837189 130.60041901 97.18148804 130.62060547 C93.89389677 130.67140235 90.60646729 130.71300525 87.31869888 130.74907303 C85.26932234 130.77211898 83.22000028 130.79795731 81.17066956 130.82475281 C73.38421347 130.92617651 65.59771124 131.01107171 57.81093693 131.08385944 C52.91046076 131.13030903 48.01020226 131.18751828 43.10990906 131.25019836 C36.61630861 131.33254422 30.12276185 131.39082762 23.62876892 131.43226624 C21.18514833 131.45048072 18.74156735 131.47522117 16.29808044 131.50660706 C12.89221985 131.54813268 9.48718118 131.56392922 6.08110046 131.57295227 C5.08068222 131.59041 4.08026398 131.60786774 3.04953003 131.62585449 C-2.68653768 131.6080442 -6.10924913 131.07398405 -10.61030579 127.14717102 C-14.5894781 121.9521405 -17.29492245 117.05439775 -17.02534485 110.34516907 C-15.10515051 100.17604577 -5.35076524 92.33823601 1.69535828 85.42988586 C3.66003571 83.50221265 5.6077456 81.5585136 7.55375671 79.61201477 C8.79499645 78.38058997 10.03715042 77.15008584 11.28031921 75.92060852 C11.86364014 75.33951324 12.44696106 74.75841797 13.04795837 74.15971375 C17.15741281 70.14717102 17.15741281 70.14717102 19.38969421 70.14717102 C19.38969421 69.48717102 19.38969421 68.82717102 19.38969421 68.14717102 C20.64750671 66.91279602 20.64750671 66.91279602 22.51469421 65.39717102 C26.76552992 61.75250141 30.85898509 57.96956902 34.88969421 54.08467102 C35.52536316 53.49524719 36.1610321 52.90582336 36.81596375 52.29853821 C37.4074823 51.72136047 37.99900085 51.14418274 38.60844421 50.54951477 C39.14404968 50.03896545 39.67965515 49.52841614 40.23149109 49.00239563 C41.87506804 46.36969301 41.57891179 44.18129619 41.38969421 41.14717102 C40.5519043 41.16382561 40.5519043 41.16382561 39.69718933 41.18081665 C33.85689876 41.29187769 28.01691063 41.36703071 22.17582703 41.42182922 C19.99927068 41.44689358 17.82279783 41.48095433 15.64653015 41.52436829 C12.50862467 41.58537514 9.37183684 41.61346224 6.23344421 41.63545227 C4.78608887 41.67416191 4.78608887 41.67416191 3.30949402 41.71365356 C-3.23714412 41.7163399 -7.55129574 40.38547975 -12.61030579 36.14717102 C-16.99839575 30.79004452 -18.38513626 24.64190475 -18.02827454 17.82295227 C-17.11065992 11.94850359 -15.07474248 7.09836265 -10.54780579 3.14717102 C-6.86181691 0.63756157 -4.35106253 0.02260025 0 0 Z " fill="#FCFEFD" transform="translate(1830.6103057861328,878.8528289794922)"/>
<path d="M0 0 C3.9101622 2.61942905 6.91037479 6.14496833 9.01171875 10.34765625 C9.15576611 12.74170112 9.2455834 15.11156536 9.29296875 17.5078125 C9.32058289 18.5654203 9.32058289 18.5654203 9.34875488 19.64439392 C9.42753977 22.66617478 9.4953189 25.68817955 9.56396484 28.71020508 C9.61557759 30.91369033 9.6728615 33.11697717 9.73046875 35.3203125 C9.74404419 36.00883804 9.75761963 36.69736359 9.77160645 37.40675354 C9.58820875 40.65923383 9.58820875 40.65923383 11.01171875 43.34765625 C12.92119231 43.39878765 14.8325152 43.38291799 16.7421875 43.33984375 C42.72333873 42.92084971 62.86428367 46.22857774 82.69921875 64.47265625 C92.40706016 74.52970059 97.15789211 86.41905608 97.58984375 100.23046875 C97.62603821 101.18486847 97.66223267 102.13926819 97.69952393 103.12258911 C97.8128908 106.19736175 97.91290807 109.27238435 98.01171875 112.34765625 C98.08381325 114.40072216 98.15607884 116.45378207 98.22851562 118.50683594 C98.40531666 123.6958953 98.55014809 128.88523086 98.67919922 134.07568359 C98.73487422 136.19891085 98.79720207 138.32197269 98.86572266 140.44482422 C98.96618468 143.57628736 99.04584916 146.70768541 99.12109375 149.83984375 C99.17242462 151.24929764 99.17242462 151.24929764 99.22479248 152.68722534 C99.34343622 158.88709773 98.94726703 164.93409933 94.70037842 169.87252808 C89.63712497 174.4263682 84.10858566 175.90998182 77.44921875 175.71875 C71.9593141 174.88294721 66.93239626 172.60675978 63.3046875 168.33984375 C59.86140588 162.96157678 58.82818305 158.24331484 58.51171875 151.91015625 C58.4716571 151.16561188 58.43159546 150.4210675 58.39031982 149.65396118 C58.30495672 148.05190007 58.22159172 146.4497315 58.14001465 144.84747314 C58.01118433 142.33724318 57.87391964 139.82758067 57.73535156 137.31787109 C57.31811955 129.58958359 56.96714123 121.8762244 56.87109375 114.13671875 C56.85046875 112.91597656 56.82984375 111.69523438 56.80859375 110.4375 C56.77815677 108.18769985 56.77156657 105.93740424 56.79296875 103.6875 C56.70228031 97.78519407 56.13925293 93.98176997 51.81542969 89.76098633 C45.6817009 84.95479305 40.2231637 83.67994392 32.51171875 83.78515625 C31.70863281 83.76130859 30.90554688 83.73746094 30.078125 83.71289062 C24.05224903 83.72754024 19.51176111 85.23397467 15.01171875 89.34765625 C12.13272502 93.31727416 11.63879113 96.10403648 11.64282227 100.97045898 C11.63905579 101.61504059 11.63528931 102.25962219 11.63140869 102.92373657 C11.62499859 104.31615689 11.62528521 105.70862101 11.6315937 107.10104179 C11.64073875 109.30870997 11.6304424 111.51553508 11.61497498 113.72315979 C11.57496854 119.99682372 11.57367121 126.27041913 11.57592773 132.54418945 C11.57597894 136.38861694 11.55675907 140.23258853 11.52659416 144.07689095 C11.51580437 146.24520378 11.52787681 148.41263335 11.54042053 150.58091736 C11.53151178 151.91910664 11.52143589 153.25728883 11.51000977 154.59545898 C11.51017593 155.75730209 11.5103421 156.9191452 11.51051331 158.11619568 C10.74671992 163.06446182 8.27697425 166.15079293 4.69921875 169.53515625 C-2.41405304 174.33247909 -8.44811402 175.36839337 -16.98828125 174.34765625 C-22.36173335 172.72778252 -25.9285171 170.12088832 -28.98828125 165.34765625 C-30.08447979 162.05906063 -30.12787167 159.61314414 -30.14891052 156.14959717 C-30.15895615 154.85139542 -30.16900177 153.55319366 -30.17935181 152.21565247 C-30.18538183 150.7736517 -30.19126684 149.33165033 -30.19702148 147.88964844 C-30.20656059 146.37348718 -30.21645178 144.8573281 -30.22666931 143.34117126 C-30.25804657 138.35898418 -30.27831956 133.37678044 -30.296875 128.39453125 C-30.30017232 127.54670735 -30.30346964 126.69888346 -30.30686688 125.82536793 C-30.3376461 117.82875256 -30.36435171 109.8321334 -30.38128567 101.83547592 C-30.40319443 91.60981442 -30.44517317 81.38467783 -30.51472324 71.15922618 C-30.56197616 63.96761131 -30.58622088 56.776138 -30.59348255 49.58437276 C-30.59843669 45.28980786 -30.61349419 40.99583472 -30.65322685 36.7014389 C-30.69013028 32.65961321 -30.69849135 28.61871632 -30.68522072 24.57675362 C-30.68527461 23.09610081 -30.69554655 21.61540645 -30.71697235 20.13490868 C-30.88908354 7.5669917 -30.88908354 7.5669917 -27.11268616 3.03277588 C-19.37383214 -4.29890577 -9.36194752 -4.68937766 0 0 Z " fill="#FCFEFD" transform="translate(792.98828125,842.65234375)"/>
<path d="M0 0 C1.45691512 1.20609091 2.89383876 2.4366374 4.3125 3.6875 C5.13492188 4.40421875 5.95734375 5.1209375 6.8046875 5.859375 C16.60482648 14.97439788 24.376998 27.18314894 25.5859375 40.7578125 C25.76662835 46.41482602 25.79763594 51.00434858 22.3125 55.6875 C16.60470344 61.7423923 11.84271862 64.32215979 3.4375 65 C-1.94564129 64.80178356 -7.23149733 63.89442693 -11.34375 60.19921875 C-14.28005769 56.55226213 -16.22114326 52.61025062 -18.18798828 48.375 C-21.19302038 41.9320501 -23.77810754 37.37615489 -30.6875 34.6875 C-36.00851517 32.91382828 -41.09296284 32.70517524 -46.390625 34.7109375 C-52.55345282 38.05067354 -56.57392249 41.91130679 -58.6875 48.6875 C-59.71834991 55.20692915 -59.02194562 60.34392175 -55.66015625 66.03125 C-54.6875 67.6875 -54.6875 67.6875 -53.6875 70.6875 C-49.87344358 72.75611794 -46.53441175 72.93807723 -42.24829102 72.94287109 C-40.96668594 72.94983002 -39.68508087 72.95678894 -38.36463928 72.96395874 C-37.6847954 72.9632777 -37.00495152 72.96259666 -36.3045063 72.96189499 C-34.16415449 72.96092515 -32.02429857 72.97392487 -29.88401794 72.99087524 C-23.80154216 73.03701222 -17.71911952 73.06175026 -11.63647461 73.06835938 C-7.90871755 73.07338526 -4.18148158 73.0976854 -0.45390129 73.13368607 C0.96177092 73.143456 2.37751505 73.14583133 3.79321098 73.14051437 C5.77679028 73.13341278 7.76041016 73.15286324 9.74389648 73.17333984 C10.87020981 73.17618988 11.99652313 73.17903992 13.15696716 73.18197632 C19.68629446 74.2279897 23.59976535 78.59574962 27.3125 83.6875 C29.51609454 90.10302841 29.57647547 98.85268727 26.8125 105.0625 C23.76992509 110.1988899 18.99431388 114.79356204 13.3125 116.6875 C3.70693899 117.9700607 -6.01537608 117.88767174 -15.6875 117.875 C-16.46775543 117.87472809 -17.24801086 117.87445618 -18.0519104 117.87417603 C-28.84952105 117.85698917 -39.59999506 117.59620194 -50.375 116.875 C-52.05432617 116.76998169 -52.05432617 116.76998169 -53.76757812 116.6628418 C-64.59490248 115.82952333 -72.69909701 112.73478949 -81.6875 106.6875 C-82.30496094 106.28144531 -82.92242187 105.87539063 -83.55859375 105.45703125 C-95.54931338 96.45706848 -102.22976526 79.13542643 -104.40234375 64.85546875 C-106.41408451 42.50585569 -101.11490932 24.24899449 -86.98828125 6.37109375 C-64.12262673 -20.299033 -26.97682415 -19.99680672 0 0 Z " fill="#FDFEFE" transform="translate(421.6875,903.3125)"/>
<path d="M0 0 C1.56460292 -0.0045688 3.12920383 -0.00987644 4.69380188 -0.0158844 C7.95749112 -0.02477633 11.2209351 -0.02243485 14.48461914 -0.01245117 C18.65758057 -0.00092647 22.82970014 -0.02124557 27.00255108 -0.05036831 C30.22743556 -0.06874243 33.4521183 -0.06843618 36.67704201 -0.06273079 C38.21556599 -0.06257793 39.75410396 -0.06859258 41.29257774 -0.08102226 C43.44387749 -0.09596647 45.59362074 -0.08523526 47.74487305 -0.06811523 C49.57612984 -0.06786598 49.57612984 -0.06786598 51.44438171 -0.06761169 C56.54144564 0.69352421 59.61296943 3.14679761 63.05078125 6.87109375 C67.45169319 13.31528623 67.72429743 19.52019905 66.30078125 27.09375 C64.69330841 33.14917324 62.52079991 38.059246 57.04736328 41.55273438 C54.08865879 42.7128089 51.46729294 42.85018848 48.29296875 43.02734375 C47.64383514 43.06436401 46.99470154 43.10138428 46.32589722 43.13952637 C36.66593124 43.65239727 26.98870017 43.79207084 17.31835938 43.98583984 C14.77335414 44.03802298 12.22848769 44.09502335 9.68359375 44.15234375 C8.54423874 44.17270691 8.54423874 44.17270691 7.38186646 44.19348145 C-2.53186582 44.14083132 -2.53186582 44.14083132 -11.51171875 47.55859375 C-18.14782499 54.65768414 -19.69145877 61.48245146 -19.60546875 71.02734375 C-18.97170655 76.34119604 -16.96476505 80.61646462 -13.19921875 84.43359375 C-6.96689172 88.11488204 -0.86436359 87.83438576 6.2406044 87.78315353 C8.3431572 87.76930357 10.44477806 87.77591537 12.54733276 87.78799438 C18.51973891 87.8188112 24.49191929 87.8140464 30.46435547 87.79394531 C34.12961075 87.78301601 37.79415916 87.79623416 41.45931625 87.82384109 C42.85072263 87.82926955 44.24220026 87.82524843 45.63354874 87.81144333 C47.57868797 87.79235452 49.52406631 87.80638111 51.46923828 87.82177734 C52.57397491 87.81939056 53.67871155 87.81700378 54.81692505 87.81454468 C58.77508479 88.63572873 60.23850845 90.3815395 62.80078125 93.43359375 C67.00162904 100.09700749 66.67875219 107.78386543 65.80078125 115.43359375 C64.60731921 118.8671651 63.08509414 121.61427074 60.80078125 124.43359375 C60.25727524 125.12037704 59.71376923 125.80716034 59.15379333 126.51475525 C55.92257815 129.14975239 53.80818574 128.94705934 49.66821289 128.96704102 C48.9569928 128.97565659 48.24577271 128.98427216 47.51300049 128.9931488 C45.16194174 129.01584233 42.81207349 129.00905736 40.4609375 129 C38.81627552 129.0052391 37.17161655 129.01151664 35.52696228 129.01878357 C32.07439073 129.02919775 28.62223091 129.02461946 25.16967773 129.01000977 C20.77849421 128.99293642 16.38863331 129.01616771 11.99759769 129.05149937 C8.5956734 129.0736499 5.19405595 129.07198777 1.79208183 129.06373405 C0.17560832 129.06292188 -1.44088945 129.0696427 -3.05729485 129.08450508 C-20.47970031 129.21998824 -34.452353 123.89847653 -47.38671875 111.87109375 C-60.37767855 98.26053332 -65.62113617 80.95542183 -65.40234375 62.39453125 C-64.43245839 43.48176677 -55.56991351 27.13053474 -41.94921875 14.24609375 C-28.86957099 3.10584204 -16.76161838 -0.04302151 0 0 Z " fill="#FDFEFE" transform="translate(604.19921875,888.56640625)"/>
<path d="M0 0 C4.0991282 2.37482953 8.01084782 6.27274145 9.61889648 10.80786133 C10.23782406 14.27520977 10.16493924 17.72115333 10.140625 21.23046875 C10.13921005 22.00167053 10.1377951 22.77287231 10.13633728 23.56744385 C10.13075409 26.02286713 10.1182047 28.47819817 10.10546875 30.93359375 C10.10045158 32.60156118 10.09588905 34.26953004 10.09179688 35.9375 C10.08079016 40.01956662 10.06353711 44.10156456 10.04296875 48.18359375 C11.28385254 48.15740967 12.52473633 48.13122559 13.80322266 48.10424805 C18.42120223 48.01352793 23.03910354 47.95626514 27.65771484 47.90893555 C29.65394348 47.88384103 31.65008068 47.84975749 33.64599609 47.80639648 C36.52073763 47.74552129 39.39426123 47.71733351 42.26953125 47.6953125 C43.15726227 47.66950607 44.04499329 47.64369965 44.95962524 47.61711121 C49.29443982 47.61516329 52.13365879 47.79542821 55.5625 50.59838867 C60.31780551 55.55448415 62.2642372 59.8891841 62.48046875 66.80859375 C62.22873397 72.88379318 60.64742143 76.4186958 56.54296875 80.93359375 C53.31527133 83.83852143 51.36321252 85.43798015 47.03051758 85.41064453 C45.82961235 85.41041794 45.82961235 85.41041794 44.60444641 85.41018677 C43.7449791 85.3998642 42.88551178 85.38954163 42 85.37890625 C41.11640305 85.37607635 40.23280609 85.37324646 39.32243347 85.37033081 C36.49997421 85.35913472 33.67783213 85.33403126 30.85546875 85.30859375 C28.94206187 85.29856321 27.02865002 85.28943749 25.11523438 85.28125 C20.42435693 85.25919726 15.73371662 85.22467137 11.04296875 85.18359375 C11.08720197 90.91332146 11.15712027 96.64195564 11.25048828 102.37109375 C11.27865196 104.3185962 11.29988935 106.26621197 11.31396484 108.21386719 C11.33545821 111.01946843 11.38214073 113.82371375 11.43359375 116.62890625 C11.43482239 117.49476349 11.43605103 118.36062073 11.43731689 119.25271606 C11.57142767 124.83242291 12.44204467 127.8718049 16.04296875 132.18359375 C21.30430089 135.99352392 28.87565402 135.30028422 35.1015625 135.25390625 C36.63738114 135.26248769 38.17319016 135.27296256 39.70898438 135.28515625 C42.0968556 135.30183921 44.48254009 135.30857174 46.87036133 135.28320312 C61.88199822 135.14711329 61.88199822 135.14711329 66.984375 139.4921875 C71.17940862 143.99778392 74.15274667 148.95223492 74.54296875 155.18359375 C74.21236447 160.62256741 72.07758254 165.09460275 68.2890625 168.984375 C64.5030613 172.29613805 61.99843817 174.29862715 56.87548828 174.34472656 C56.01343781 174.35433411 55.15138733 174.36394165 54.26321411 174.37384033 C52.85868484 174.38021515 52.85868484 174.38021515 51.42578125 174.38671875 C50.45824921 174.39241882 49.49071716 174.3981189 48.49386597 174.4039917 C46.43765356 174.41345543 44.3814259 174.41998111 42.32519531 174.42382812 C39.21521373 174.43344762 36.10591767 174.46442145 32.99609375 174.49609375 C12.5773095 174.60755202 -4.72841556 170.75124521 -19.95703125 156.18359375 C-29.767327 146.11782155 -32.5749203 135.27113979 -32.47460938 121.44189453 C-32.48161865 120.23058365 -32.48862793 119.01927277 -32.49584961 117.77125549 C-32.5103121 114.48838682 -32.50710422 111.20617661 -32.49433327 107.92331934 C-32.48411296 104.47082941 -32.49362245 101.01837934 -32.49987793 97.56588745 C-32.50712249 91.7778956 -32.49764504 85.99010902 -32.47851562 80.20214844 C-32.4566909 73.5217333 -32.4638512 66.8418055 -32.48582125 60.16140187 C-32.50399309 54.40395898 -32.50652679 48.6466624 -32.49606657 42.88920009 C-32.48984927 39.4596125 -32.48894822 36.03025394 -32.50221252 32.6006813 C-32.51236707 28.78309297 -32.49689295 24.96644409 -32.47460938 21.14892578 C-32.4827063 20.02050766 -32.49080322 18.89208954 -32.49914551 17.72947693 C-32.43257513 11.57560993 -32.14115931 7.82825505 -27.95703125 3.18359375 C-19.7332347 -3.02621181 -9.64040348 -3.6700261 0 0 Z " fill="#FDFEFE" transform="translate(153.95703125,845.81640625)"/>
<path d="M0 0 C9.23164729 7.27094344 17.77058361 15.77454732 19.77734375 27.74609375 C20.15950672 32.37092454 20.28847842 36.9946654 20.41015625 41.6328125 C20.45143263 42.98031253 20.49342839 44.3277907 20.53610229 45.67524719 C20.62356756 48.49162315 20.70545142 51.30808179 20.78271484 54.12475586 C20.88071612 57.69724646 20.98785086 61.2693806 21.09866524 64.84149456 C21.20544979 68.29267994 21.30815162 71.74398297 21.41015625 75.1953125 C21.4476297 76.45929367 21.48510315 77.72327484 21.52371216 79.02555847 C21.62253266 82.59893439 21.70560475 86.1720765 21.77734375 89.74609375 C21.81671051 91.56278061 21.81671051 91.56278061 21.85687256 93.41616821 C21.8791391 95.1569313 21.8791391 95.1569313 21.90185547 96.93286133 C21.92516434 98.48376213 21.92516434 98.48376213 21.94894409 100.06599426 C21.69912878 103.96767585 20.48087182 105.97142021 17.77734375 108.74609375 C10.87330954 113.95934407 5.21246501 114.32937341 -3.22265625 113.74609375 C-9.05847107 111.98433833 -12.6992399 107.56045878 -16.22265625 102.74609375 C-17.16661699 99.91421153 -17.36711275 98.08555252 -17.41210938 95.14550781 C-17.4288269 94.21313293 -17.44554443 93.28075806 -17.46276855 92.32012939 C-17.47634399 91.31085388 -17.48991943 90.30157837 -17.50390625 89.26171875 C-17.52231567 88.2139325 -17.5407251 87.16614624 -17.55969238 86.08660889 C-17.6184758 82.72316146 -17.67116081 79.35966013 -17.72265625 75.99609375 C-17.93672946 58.93983704 -17.93672946 58.93983704 -18.625 41.8984375 C-18.68937256 40.77687256 -18.75374512 39.65530762 -18.82006836 38.49975586 C-19.47146258 34.04428257 -20.68226211 32.53321254 -24.22265625 29.74609375 C-24.72152344 29.34003906 -25.22039062 28.93398438 -25.734375 28.515625 C-32.36234093 24.1515935 -41.61397744 24.69796892 -49.22265625 25.74609375 C-56.09711792 27.72830049 -59.63335604 30.5321865 -63.22265625 36.74609375 C-63.84036434 39.9630122 -63.84036434 39.9630122 -63.796875 43.390625 C-63.82370361 44.69217529 -63.85053223 45.99372559 -63.87817383 47.3347168 C-63.88329987 48.02286469 -63.8884259 48.71101257 -63.89370728 49.42001343 C-63.91040059 51.59036128 -63.9515014 53.75907099 -63.9987793 55.92895508 C-64.09486181 60.53442251 -64.16097357 65.14005382 -64.22265625 69.74609375 C-64.29417655 75.08673977 -64.37819105 80.42657513 -64.49453735 85.76644897 C-64.53446853 87.89690193 -64.55126666 90.02672299 -64.56713867 92.1574707 C-64.59396729 93.459021 -64.6207959 94.76057129 -64.6484375 96.1015625 C-64.66302002 97.24262451 -64.67760254 98.38368652 -64.69262695 99.55932617 C-65.54665892 104.6941393 -68.03250577 107.79397337 -72.03515625 110.99609375 C-78.19548549 114.37823529 -84.26826689 115.80637163 -91.23046875 114.31640625 C-96.81790051 112.59556225 -99.92112287 109.48704998 -103.22265625 104.74609375 C-104.70735308 101.77670008 -104.36639607 99.09057935 -104.38378906 95.77709961 C-104.38875397 95.0597464 -104.39371887 94.34239319 -104.39883423 93.603302 C-104.41347415 91.22250413 -104.42026345 88.84177305 -104.42578125 86.4609375 C-104.43153443 84.80383808 -104.43729214 83.14673867 -104.4430542 81.48963928 C-104.4535716 78.00847056 -104.45940836 74.52732496 -104.46289062 71.04614258 C-104.46835463 66.60329593 -104.4923343 62.16075897 -104.52086258 57.718009 C-104.53957266 54.2905847 -104.54469915 50.86323344 -104.5462265 47.43576241 C-104.54923842 45.79923384 -104.55721718 44.1627061 -104.57041168 42.52622795 C-104.67553226 28.47697081 -103.15177764 19.88792757 -93.1015625 9.6015625 C-92.60930176 9.11349121 -92.11704102 8.62541992 -91.60986328 8.12255859 C-90.40753024 6.92953612 -89.23236956 5.70924747 -88.0625 4.484375 C-64.36652722 -18.75502797 -26.15623852 -18.2935147 0 0 Z " fill="#FCFDFD" transform="translate(1096.22265625,901.25390625)"/>
<path d="M0 0 C2.86618922 4.71263343 2.47718994 9.21413233 2.48339844 14.63208008 C2.50016129 15.78312225 2.51692413 16.93416443 2.53419495 18.12008667 C2.58378488 21.87806243 2.60488532 25.63555416 2.62402344 29.39379883 C2.64905301 31.97559842 2.67534545 34.55738607 2.70288086 37.13916016 C2.75450518 42.32591102 2.79343488 47.51253979 2.82275391 52.69946289 C2.85664875 58.34208602 2.92504182 63.98309536 3.01864624 69.62501526 C3.07794186 73.3224432 3.12014585 77.01990858 3.15710449 80.71762085 C3.17658575 82.40701373 3.20213739 84.09634842 3.23400879 85.78555298 C3.27531365 88.10708967 3.29101699 90.42741218 3.29980469 92.74926758 C3.31438721 94.0308374 3.32896973 95.31240723 3.34399414 96.6328125 C2.67416128 101.54781986 0.50091689 104.65160458 -3.18847656 107.89379883 C-8.59008463 111.20446184 -15.025645 110.70216098 -21.12597656 110.08129883 C-26.8241137 108.14266394 -30.06664942 104.37562059 -33.09480286 99.33379173 C-34.85148749 95.49649483 -34.80748626 91.8777694 -34.74121094 87.71533203 C-34.74675995 86.81511322 -34.75230896 85.91489441 -34.75802612 84.98739624 C-34.76976212 82.03506936 -34.7456144 79.08429774 -34.71972656 76.13208008 C-34.7180142 74.07040985 -34.71808242 72.00873744 -34.71984863 69.94706726 C-34.71819898 65.6373497 -34.69956156 61.32815458 -34.66796875 57.01855469 C-34.62821768 51.49702848 -34.62393446 45.97618343 -34.63143158 40.45454121 C-34.63450134 36.20199858 -34.6223817 31.94960888 -34.6053009 27.6971035 C-34.59827621 25.66096137 -34.59514573 23.62480192 -34.59599304 21.58864784 C-34.59419417 18.74514044 -34.57280686 15.90244832 -34.54589844 13.05908203 C-34.54882904 12.22000809 -34.55175964 11.38093414 -34.55477905 10.51643372 C-34.4870495 5.87476614 -34.09010904 2.87499141 -31.12597656 -0.91870117 C-21.08976628 -9.23321848 -9.55619559 -8.62449944 0 0 Z " fill="#FCFDFD" transform="translate(1254.1259765625,908.918701171875)"/>
<path d="M0 0 C3.86788724 2.75778964 7.4690199 5.63076653 8.61645508 10.43847656 C9.22695191 16.97630033 9.31290201 23.47915563 9.2890625 30.04296875 C9.29486328 31.68652344 9.29486328 31.68652344 9.30078125 33.36328125 C9.29949219 34.40226563 9.29820313 35.44125 9.296875 36.51171875 C9.29574707 37.45466797 9.29461914 38.39761719 9.29345703 39.36914062 C9.1640625 41.54296875 9.1640625 41.54296875 8.1640625 42.54296875 C5.72493068 42.68118749 3.31615045 42.75608545 0.875 42.78125 C0.13835114 42.78932175 -0.59829773 42.79739349 -1.35726929 42.80570984 C-2.92256302 42.81957105 -4.48788724 42.83028406 -6.05322266 42.83813477 C-8.4306128 42.85525043 -10.80657663 42.89910245 -13.18359375 42.94335938 C-14.70571895 42.95349485 -16.22785598 42.96200827 -17.75 42.96875 C-18.45444244 42.98625809 -19.15888489 43.00376617 -19.88467407 43.02180481 C-25.39263469 42.99800109 -28.3960339 41.55749916 -32.8359375 38.54296875 C-34.796875 36.25390625 -34.796875 36.25390625 -36.2109375 33.91796875 C-36.69304687 33.14195312 -37.17515625 32.3659375 -37.671875 31.56640625 C-40.92517576 25.91133984 -40.44765035 19.94134457 -39.8359375 13.54296875 C-37.29978545 6.28707186 -31.09888147 1.50073513 -24.7109375 -2.33203125 C-16.51414566 -5.3897109 -7.44828697 -4.33068151 0 0 Z " fill="#028A7C" transform="translate(1670.8359375,928.45703125)"/>
<path d="M0 0 C4.55489112 3.09081898 8.33058227 7.16752805 10.078125 12.41015625 C10.67945331 18.37718334 10.19096773 23.15723415 7.078125 28.41015625 C2.49140428 33.28478801 -1.93772101 36.93755316 -8.75390625 37.74609375 C-16.42520385 37.846635 -21.9646649 37.13770683 -27.671875 31.76171875 C-32.19467785 26.78228677 -34.45210298 22.44624772 -34.23046875 15.5234375 C-33.28546528 9.05195807 -29.70201463 4.70781284 -24.80078125 0.63671875 C-17.22093041 -4.3114583 -7.94589748 -3.98723992 0 0 Z " fill="#FBFDFD" transform="translate(1250.921875,841.58984375)"/>
</svg>
